<svg xmlns="http://www.w3.org/2000/svg" width="14" height="14" fill="none"><path fill="#2D3440" fill-rule="evenodd" d="M7.0003 2.125c-2.6926 0-4.8753 2.1827-4.8753 4.8752 0 2.6926 2.1827 4.8753 4.8753 4.8753 2.6925 0 4.8752-2.1827 4.8752-4.8753 0-2.6925-2.1827-4.8752-4.8752-4.8752ZM.7917 7.0002c0-3.4289 2.7797-6.2085 6.2086-6.2085 3.4289 0 6.2085 2.7796 6.2085 6.2085s-2.7796 6.2086-6.2085 6.2086c-3.429 0-6.2086-2.7797-6.2086-6.2086ZM7 6.3333A.6667.6667 0 0 1 7.6667 7v2.2167a.6667.6667 0 0 1-1.3333 0V7a.6667.6667 0 0 1 .6667-.6667Zm0-2.2167a.6667.6667 0 0 0 0 1.3333h.0058a.6667.6667 0 0 0 0-1.3333h-.0058Z" clip-rule="evenodd"/></svg>