<svg xmlns="http://www.w3.org/2000/svg" width="14" height="15" fill="none"><path fill="#2D3440" fill-rule="evenodd" d="M8 1.525c0-.369.298-.667.667-.667h2.666a2 2 0 0 1 2 2v9.333a2 2 0 0 1-2 2H8.667a.667.667 0 1 1 0-1.333h2.666A.666.666 0 0 0 12 12.19V2.858a.666.666 0 0 0-.667-.667H8.667A.667.667 0 0 1 8 1.525ZM4.862 3.72c.26-.26.682-.26.943 0l3.329 3.329a.673.673 0 0 1 .2.476.664.664 0 0 1-.2.475l-3.33 3.33a.667.667 0 1 1-.942-.944l2.195-2.195H.667a.667.667 0 1 1 0-1.333h6.39L4.862 4.663a.667.667 0 0 1 0-.943Z" clip-rule="evenodd"/></svg>