<svg xmlns="http://www.w3.org/2000/svg" width="15" height="14" fill="none"><path fill="#2D3440" fill-rule="evenodd" d="M1.1667.108a.6667.6667 0 1 0 0 1.3332h1.7712l.4675 2.3354a.664.664 0 0 0 .0106.0531l.9674 4.8334.0001.0005a1.8255 1.8255 0 0 0 1.8183 1.4691h5.6207a1.8257 1.8257 0 0 0 1.8185-1.4696l.001-.005.9271-4.8615a.6669.6669 0 0 0-.6549-.7915H4.6107L4.1381.6437A.6667.6667 0 0 0 3.4844.108H1.1667ZM5.691 8.4022l-.8134-4.0639h8.2308l-.7756 4.0669a.4923.4923 0 0 1-.4918.3942v-.0001H6.1962v-.0001l-.0128.0002a.4922.4922 0 0 1-.4922-.3962l-.0002-.001Zm-1.1336 3.961c0-.6879.5577-1.2456 1.2457-1.2456.688 0 1.2457.5577 1.2457 1.2456 0 .688-.5577 1.2457-1.2457 1.2457-.688 0-1.2457-.5577-1.2457-1.2457Zm6.3733 0c0-.6879.5577-1.2456 1.2457-1.2456.688 0 1.2457.5577 1.2457 1.2456 0 .688-.5577 1.2457-1.2457 1.2457-.688 0-1.2457-.5577-1.2457-1.2457Z" clip-rule="evenodd"/></svg>