<svg xmlns="http://www.w3.org/2000/svg" width="16" height="32" fill="none"><path fill="#2D3440" d="M8 0A8.01 8.01 0 0 0 .056 7.059H0v15.887h16V7.059h-.056A8.01 8.01 0 0 0 8 0Zm6.118 21.064H1.882v-8.678a1.685 1.685 0 0 0 1.45.602c1.214 0 2.004-.677 2.004-1.534v-.819a.81.81 0 1 1 1.61 0v3.097a1.76 1.76 0 0 0 1.995 1.722 1.75 1.75 0 0 0 1.995-1.647v-2.08a1.269 1.269 0 0 1 1.778-1.272 1.268 1.268 0 0 1 .754 1.272.387.387 0 0 0 0 .085 1.064 1.064 0 0 0 .63.837v8.471l.02-.056ZM6.588 30.588a1.412 1.412 0 1 0 2.824 0v-6.7H6.588v6.7Z"/></svg>