<svg xmlns="http://www.w3.org/2000/svg" width="137" height="56" fill="none"><path fill="#2D3440" d="M52.7904 37.5653a3.4493 3.4493 0 0 0-1.9143.3309s-2.6713 2.2447-15.8849-.3399c-9.7143-1.9049-14.7629-1.7081-14.7629-1.7081s1.6294-11.1791 1.1842-14.3092a.8954.8954 0 0 0-.3037-.5966.8878.8878 0 0 0-.6312-.2172c-.9706 0-1.5582.3756-1.5582.8943a42.564 42.564 0 0 1-.2226 6.3318 5.3616 5.3616 0 0 1-2.154 2.6902 5.325 5.325 0 0 1-3.3398.8156c-4.2295-.2952-5.1199-3.3538-5.4938-5.4375-.374-2.0838-.5877-7.9059.5253-10.2848 0 0 6.3753.2236 10.3821-3.2106 4.0069-3.4342 3.7576-6.4034 1.861-7.6733-1.8966-1.27-6.3397-1.0463-9.75 2.0838a17.329 17.329 0 0 0-4.5232 6.2603S1.1914 12.1218 2.34 6.8631C3.56 1.372 11.0304 2.016 11.0304 2.016c1.5582.304 1.6294.4472 2.1459-.0715.5164-.5187.8904-1.8602-1.5583-1.9407C9.1694-.0768 1.8236 1.1395.4167 6.0404c-1.5048 5.2139 1.2733 8.9432 5.0041 9.5245 0 0-2.039 9.0327.4808 13.5043a7.9456 7.9456 0 0 0 3.1628 3.3693 7.8966 7.8966 0 0 0 4.4947 1.0308c1.4692 0 4.0692-.8228 4.8082-2.0122 0 0-.3472 3.2016-.6411 4.3643 0 0-6.1794-.0805-8.1116.8943-3.2856 1.7439-2.6 5.831-1.3356 7.2798 1.0685 1.2341 4.2829 1.9049 6.6068.8049a8.8599 8.8599 0 0 0 3.3421-2.8125 8.9123 8.9123 0 0 0 1.5997-4.0738 35.1732 35.1732 0 0 1 11.1568 1.2163c5.4938 1.6455 13.1424 3.1837 15.4396 3.1837 2.2973 0 7.1233-.6618 7.4171-2.5846.1603-1.2699-.3116-1.9317-1.0507-2.1642ZM14.1201 7.677s2.9205-2.2358 4.3185-.8407c.3138.34.4948.7825.5095 1.246a1.9286 1.9286 0 0 1-.4294 1.276c-.5877.7691-2.137 3.2017-9.4917 4.409 0 0 2.315-4.078 5.0931-6.0903Zm.2404 34.7981s-4.0335 2.209-4.452-.787a2.8286 2.8286 0 0 1 .1609-1.874 2.8121 2.8121 0 0 1 1.2993-1.3545c.7035-.3488 1.6651-.787 5.8589-.635a5.67 5.67 0 0 1-.8361 2.6968 5.6385 5.6385 0 0 1-2.031 1.9537Z"/><path fill="#2D3440" d="M65.5143 21.226v6.1619a5.0409 5.0409 0 0 1-.7657 2.2626 4.9878 4.9878 0 0 1-1.0507 1.3147c-.4719.4114-.7836-.5098-.9616-.8943-1.2377-2.6025-.6411-6.0904-.1603-8.8181.2226-1.3057-2.413-.9659-2.6178.1968a26.4253 26.4253 0 0 0-.4897 7.0741 1.6588 1.6588 0 0 0-.6659.1986 1.6678 1.6678 0 0 0-.5273.4542c-.4541.9748-1.7808 4.2123-3.4102 2.9155-1.1754-.8943-1.3-3.3447-1.4247-4.7131a13.9097 13.9097 0 0 1 .7302-5.5984c-.0535.152 1.015-2.531 1.4869-1.5293.1276.4773.145.9776.0509 1.4627a3.2532 3.2532 0 0 1-.594 1.3365c-1.3979 1.0553.7746 1.4935 1.6205.8496 1.6028-1.2073 2.6713-5.1066-.0623-5.5716-3.0897-.5187-4.8438 2.6114-5.4938 5.0976a16.283 16.283 0 0 0-.4452 4.3643c-.4274.7513-1.8699 3.1659-2.7157 3.5773-.9973.5187-.9795-.2057-.9439-.6707.0356-.4651.4808-4.6058.7213-7.3961a5.1805 5.1805 0 0 0-.4453-3.2643c-.3828-.778-3.5616-2.522-6.3575.7513-1.575 1.7268-2.5389 3.9272-2.7424 6.2602-.187.3757-.3918.7781-.6322 1.2163-1.3356 2.4594-3.0185 3.4968-3.615 1.7887a13.6843 13.6843 0 0 1-.6678-5.5359 34.5121 34.5121 0 0 0 4.5054-10.5083c1.3356-5.9562 1.0863-8.9164.3651-9.4172-.7213-.5009-3.7842-1.735-5.6274 5.5895a47.9296 47.9296 0 0 0-1.4157 15.9905c-.285.6081-.6411 1.3415-1.0952 2.1732-1.3356 2.4594-3.0096 3.4968-3.6151 1.7887a13.6866 13.6866 0 0 1-.6322-5.5359 34.5099 34.5099 0 0 0 4.5055-10.5083c1.3801-6.0367 1.1041-8.997.3829-9.4977-.7213-.5009-3.7843-1.735-5.6185 5.5895-1.8342 7.3245-2.1993 15.3108-.4452 20.6768 0 0 .9616 3.0228 2.7603 2.7992 1.4869-.1878 3.2588-1.6545 4.3006-4.3911.1178.5378.2634 1.0692.4363 1.5919 0 0 .9616 3.0228 2.7603 2.7992 1.2198-.152 2.6712-1.1805 3.6863-3.0586.6321 1.6366 1.9945 2.987 3.7486 2.683 2.3773-.4293 2.8671-1.7261 2.8671-1.7261s-.0446 2.1285 1.478 2.1285c1.3535 0 2.4309-.7959 3.4993-2.826.3651-.6887.5788-1.0911.6946-1.3236.3116 1.9228 1.1041 3.6309 2.6712 4.3195 2.6712 1.1627 5.0041-1.0463 6.3753-3.2285a3.8565 3.8565 0 0 0 .8404 1.4118 3.8382 3.8382 0 0 0 1.35.9314 3.3248 3.3248 0 0 0 1.7987.0571 3.3352 3.3352 0 0 0 1.567-.8889v3.1481a2.2803 2.2803 0 0 0-1.3801.3756 10.4693 10.4693 0 0 0-3.0729 4.2211 10.5148 10.5148 0 0 0-.6579 5.1872c.0376.4754.1918.934.4488 1.335.257.401.6089.7318 1.0242.9629a2.8654 2.8654 0 0 0 2.7208.0363c2.7603-1.2074 3.1787-5.366 3.4103-7.9059.5609-6.1082.1246-12.4669.1246-18.593 0-1.1268-2.5822-.5992-2.5822.322ZM26.933 11.2096c.6144-2.37 1.1843-3.318 1.7808-3.318.5966 0 .8281.635.4096 2.683a52.6026 52.6026 0 0 1-3.6417 11.4026s.837-8.3887 1.4513-10.7676Zm7.4973 0c.6143-2.37 1.1842-3.318 1.7362-3.318.5521 0 .837.635.4185 2.683s-1.7808 7.7091-3.6417 11.4026c0 0 .8904-8.3887 1.487-10.7676Zm11.4506 11.1522c-.0713.5187-.4096 3.8366-.8904 5.6253-.4808 1.7886-.8103 2.4236-2.2528 3.0407-1.4424.6171-2.1725-1.27-2.1725-1.27-1.024-2.8618.3472-5.3659 1.4869-7.083 1.1398-1.7171 2.2884-1.8691 2.9473-1.7887a1.209 1.209 0 0 1 .4275.2027 1.2188 1.2188 0 0 1 .4771.7987 1.2226 1.2226 0 0 1-.0231.4743Zm19.5622 16.0978a16.2416 16.2416 0 0 1-1.4068 6.9847c-.6233.1252-.8904-.1073-1.1041-1.109a9.633 9.633 0 0 1 0-2.9065 8.0593 8.0593 0 0 1 2.4753-4.6058c.0445.5634.0445 1.109.0356 1.6366ZM82.1827 18.6951a9.5903 9.5903 0 0 1-3.0762-2.1725 9.6391 9.6391 0 0 1-2.008-3.1935c-1.1397-3.4163 2.6-5.9383 5.5829-5.7863 2.9828.152 4.5767 3.2375 4.452 6.0009-.0534.9749-.6678 3.1749-1.8699 2.0302a5.6918 5.6918 0 0 1-1.389-3.2464c-.1781-1.0822-2.7602-.4383-2.5822.6975.5165 3.2733 4.0247 6.8774 7.0342 3.4521a6.5855 6.5855 0 0 0 1.2667-2.6484 6.6003 6.6003 0 0 0-.0087-2.9381 6.5844 6.5844 0 0 0-1.2822-2.6408 6.5502 6.5502 0 0 0-2.2997-1.816 9.0803 9.0803 0 0 0-6.2865-.1218c-2.0436.7093-3.7698 2.125-4.8703 3.9943-2.4308 4.3375 2.4486 8.5766 5.9034 10.1237 5.5472 2.9781 5.752 12.5653-1.6206 12.6279a7.4048 7.4048 0 0 1-4.2062-1.4311 7.4562 7.4562 0 0 1-2.641-3.5861c-.5075-1.5024-.2493-6.7521 1.7808-7.1546 1.6117-.313 1.1754-1.7886-.4006-1.5114-3.3035.644-4.5233 4.9278-4.2028 7.9237.5165 4.7757 4.9685 7.4498 9.4651 7.414a8.4966 8.4966 0 0 0 5.5021-1.8197c1.5662-1.2334 2.6532-2.9784 3.0725-4.9325a8.3937 8.3937 0 0 0-.9906-5.5975c-.971-1.6924-2.5012-2.99-4.3252-3.6676Z"/><path fill="#2D3440" d="M98.7265 32.9059c-2.5377-1.3952-1.0863-6.7701-.7034-8.836.2493-1.3325 1.3801-3.3895-.4363-3.8456-2.1281-.5187-4.6569 1.5115-6.4822 3.4521a45.5198 45.5198 0 0 1 .4897-6.6895c2.8157-1.411 5.0701-3.7416 6.3931-6.6091 1.1576-2.3252 1.7274-7.1546-2.1904-5.7415-3.5616 1.252-4.7814 5.3659-5.8944 8.666a26.925 26.925 0 0 0-.9706 3.9082 11.2247 11.2247 0 0 1-1.0863.3935c-1.478.465-1.2822 1.261.2137.7959l.7212-.2325c-.7123 5.0172-.2315 10.2758.2227 15.2035 0 .4829 2.6712 0 2.5732-.6976-.1959-2.2-.365-4.4-.4363-6.5822a1.2363 1.2363 0 0 0 .561-.3488 20.0912 20.0912 0 0 1 2.7424-2.835c.2672-.2415.5432-.465.8192-.6797l.4096-.304c.5966-.474.7123-.483.3383 0a24.6456 24.6456 0 0 1-.552 2.5309c-.4897 2.683-1.8966 7.9505 1.1931 9.6408.6678.3399 3.0719-.6618 2.0747-1.1894Zm-5.7788-21.5622c.2761-.7959.6411-1.583.9795-2.352.4185-.966 1.5404-4.266 2.3507-2.683.65 1.261-.374 3.3269-.8281 4.5342a10.6298 10.6298 0 0 1-3.5616 4.7399 33.2135 33.2135 0 0 1 1.0595-4.2391Z"/><path fill="#2D3440" d="M108.298 26.6366c0-2.9423-.329-6.7163-3.828-7.0293-3.838-.3488-5.3428 3.6846-5.3963 6.6984a.5294.5294 0 0 0 .077.3036.526.526 0 0 0 .2347.2062c0 2.8171.6766 6.4928 4.0156 6.4302 3.722-.0537 4.897-3.3179 4.897-6.6091Zm-4.452 4.9009c-2.172-.8943-1.976-4.6594-1.834-6.4749a.4849.4849 0 0 0-.214-.474c.268-1.7886.962-4.4716 2.547-3.139 1.264 1.091 1.291 3.7114 1.353 5.2228.054 1.0553-.08 5.5269-1.843 4.8651h-.009ZM136.346 42.7792c-.997-2.5757-3.188-3.5773-5.601-3.6846a10.0299 10.0299 0 0 0-1.006-1.8602c-3.481-5.1781-11.744-4.4716-17.345-1.7887 0-.8138-.08-1.6276-.116-2.4415a6.4861 6.4861 0 0 0 3.249-.5789 6.5123 6.5123 0 0 0 2.548-2.104c1.487-2.1375 1.273-5.9294.686-8.3262-.552-2.2537-2.743-1.8512-4.39-1.1a6.5491 6.5491 0 0 0-1.656 1.1268c0-.5992.098-1.2073.142-1.7886.098-1.3773-2.529-1.0285-2.618.1878-.409 5.5359-.267 11.0538-.391 16.5808a13.1968 13.1968 0 0 0-3.666 4.8376 13.2447 13.2447 0 0 0-1.116 5.9747c0 2.0302 1.719 3.5773 3.562 2.1285 2.573-1.9854 3.357-5.9293 3.713-8.9432.146-1.3451.193-2.6992.142-4.0513a12.427 12.427 0 0 1 6.754-2.0502 12.422 12.422 0 0 1 6.78 1.9608 6.2026 6.2026 0 0 1 2.022 2.4146 16.2384 16.2384 0 0 0-4.114 1.3236c-1.523.7334-3.784 2.4684-3.677 4.4091a2.6866 2.6866 0 0 0 .546 1.7038c.372.4884.898.834 1.493.9791a.7952.7952 0 0 0 .258.0805c5.467.8943 9.536-2.3521 8.753-6.922 2.671 1.4577 3.659 4.8382 2.715 7.7448-2.128 6.5286-10.32 7.9863-15.092 3.622-.517-.465-2.84.5187-2.431.8943 6.892 6.3229 24.059.474 19.856-10.3294Zm-26.659-1.583a13.915 13.915 0 0 1-1.015 4.5969c-.222.4918-.463.9658-.721 1.4309 0 0-.231.0536-.276-.6439a12.9098 12.9098 0 0 1 2.084-7.0562c-.018.5544-.036 1.1179-.072 1.6723Zm2.787-15.9726a.6979.6979 0 0 0 .134-.152 12.518 12.518 0 0 1 1.692-2.2448 7.0114 7.0114 0 0 1 1.611-1.3593c.285.143.579.8943.686 1.9049.276 2.4862.392 9.0326-3.508 8.4156a2.1318 2.1318 0 0 0-.891.152c-.009-2.2716.116-4.4895.276-6.7164Zm11.647 21.2313h-.054c-1.495-.3578-1.335-1.7887-1.139-2.7546.436-2.2626 3.178-3.4789 5.44-3.5772 1.149 3.2195.267 7.0741-4.247 6.3318Z"/></svg>